<?xml version="1.0" encoding="UTF-8" standalone="no"?>
<!DOCTYPE svg PUBLIC "-//W3C//DTD SVG 1.1//EN"
 "http://www.w3.org/Graphics/SVG/1.1/DTD/svg11.dtd">
<!-- Generated by graphviz version 2.47.0 (20210316.0004)
 -->
<!-- Title: dependencies Pages: 1 -->
<svg width="504pt" height="211pt"
 viewBox="0.00 0.00 504.00 211.00" xmlns="http://www.w3.org/2000/svg" xmlns:xlink="http://www.w3.org/1999/xlink">
<g id="graph0" class="graph" transform="scale(1 1) rotate(0) translate(4 207)">
<title>dependencies</title>
<polygon fill="white" stroke="transparent" points="-4,4 -4,-207 500,-207 500,4 -4,4"/>
<text text-anchor="start" x="227.01" y="-42.4" font-family="Times-12" font-weight="bold" font-size="14.00">Legend</text>
<polygon fill="#ffffb3" stroke="transparent" points="14,-10 14,-30 34,-30 34,-10 14,-10"/>
<text text-anchor="start" x="37.63" y="-15.4" font-family="Times-12" font-size="14.00"> &#160;Declarations</text>
<polygon fill="#8dd3c7" stroke="transparent" points="127,-10 127,-30 147,-30 147,-10 127,-10"/>
<text text-anchor="start" x="150.73" y="-15.4" font-family="Times-12" font-size="14.00"> &#160;Module</text>
<polygon fill="#80b1d3" stroke="transparent" points="213,-10 213,-30 233,-30 233,-10 213,-10"/>
<text text-anchor="start" x="236.78" y="-15.4" font-family="Times-12" font-size="14.00"> &#160;Bootstrap</text>
<polygon fill="#fdb462" stroke="transparent" points="310,-10 310,-30 330,-30 330,-10 310,-10"/>
<text text-anchor="start" x="333.67" y="-15.4" font-family="Times-12" font-size="14.00"> &#160;Providers</text>
<polygon fill="#fb8072" stroke="transparent" points="406,-10 406,-30 426,-30 426,-10 406,-10"/>
<text text-anchor="start" x="429.73" y="-15.4" font-family="Times-12" font-size="14.00"> &#160;Exports</text>
<g id="clust1" class="cluster">
<title>cluster_AppModule</title>
<polygon fill="none" stroke="black" stroke-dasharray="1,5" points="36.5,-70 36.5,-195 459.5,-195 459.5,-70 36.5,-70"/>
</g>
<g id="clust3" class="cluster">
<title>cluster_AppModule_imports</title>
<polygon fill="none" stroke="black" points="333.5,-78 333.5,-130 451.5,-130 451.5,-78 333.5,-78"/>
</g>
<g id="clust6" class="cluster">
<title>cluster_AppModule_providers</title>
<polygon fill="none" stroke="black" points="44.5,-78 44.5,-130 325.5,-130 325.5,-78 44.5,-78"/>
</g>
<!-- MoviesModule -->
<g id="node1" class="node">
<title>MoviesModule</title>
<polygon fill="#8dd3c7" stroke="black" points="443.05,-122 440.05,-126 419.05,-126 416.05,-122 341.95,-122 341.95,-86 443.05,-86 443.05,-122"/>
<text text-anchor="middle" x="392.5" y="-99.8" font-family="Times,serif" font-size="14.00">MoviesModule</text>
</g>
<!-- AppModule -->
<g id="node2" class="node">
<title>AppModule</title>
<polygon fill="#8dd3c7" stroke="black" points="302.16,-187 299.16,-191 278.16,-191 275.16,-187 218.84,-187 218.84,-151 302.16,-151 302.16,-187"/>
<text text-anchor="middle" x="260.5" y="-164.8" font-family="Times,serif" font-size="14.00">AppModule</text>
</g>
<!-- MoviesModule&#45;&gt;AppModule -->
<g id="edge1" class="edge">
<title>MoviesModule&#45;&gt;AppModule</title>
<path fill="none" stroke="black" d="M392.5,-122.11C392.5,-141.34 392.5,-169 392.5,-169 392.5,-169 312.27,-169 312.27,-169"/>
<polygon fill="black" stroke="black" points="312.27,-165.5 302.27,-169 312.27,-172.5 312.27,-165.5"/>
</g>
<!-- AppService -->
<g id="node3" class="node">
<title>AppService</title>
<ellipse fill="#fdb462" stroke="black" cx="260.5" cy="-104" rx="56.74" ry="18"/>
<text text-anchor="middle" x="260.5" y="-99.8" font-family="Times,serif" font-size="14.00">AppService</text>
</g>
<!-- AppService&#45;&gt;AppModule -->
<g id="edge2" class="edge">
<title>AppService&#45;&gt;AppModule</title>
<path fill="none" stroke="black" d="M260.5,-122.11C260.5,-122.11 260.5,-140.99 260.5,-140.99"/>
<polygon fill="black" stroke="black" points="257,-140.99 260.5,-150.99 264,-140.99 257,-140.99"/>
</g>
<!-- PrismaService -->
<g id="node4" class="node">
<title>PrismaService</title>
<ellipse fill="#fdb462" stroke="black" cx="119.5" cy="-104" rx="66.63" ry="18"/>
<text text-anchor="middle" x="119.5" y="-99.8" font-family="Times,serif" font-size="14.00">PrismaService</text>
</g>
<!-- PrismaService&#45;&gt;AppModule -->
<g id="edge3" class="edge">
<title>PrismaService&#45;&gt;AppModule</title>
<path fill="none" stroke="black" d="M119.5,-122.11C119.5,-141.34 119.5,-169 119.5,-169 119.5,-169 208.58,-169 208.58,-169"/>
<polygon fill="black" stroke="black" points="208.58,-172.5 218.58,-169 208.58,-165.5 208.58,-172.5"/>
</g>
</g>
</svg>
