<?xml version="1.0" encoding="UTF-8" standalone="no"?>
<!DOCTYPE svg PUBLIC "-//W3C//DTD SVG 1.1//EN"
 "http://www.w3.org/Graphics/SVG/1.1/DTD/svg11.dtd">
<!-- Generated by graphviz version 2.47.0 (20210316.0004)
 -->
<!-- Title: dependencies Pages: 1 -->
<svg width="504pt" height="279pt"
 viewBox="0.00 0.00 504.00 279.00" xmlns="http://www.w3.org/2000/svg" xmlns:xlink="http://www.w3.org/1999/xlink">
<g id="graph0" class="graph" transform="scale(1 1) rotate(0) translate(4 275)">
<title>dependencies</title>
<polygon fill="white" stroke="transparent" points="-4,4 -4,-275 500,-275 500,4 -4,4"/>
<text text-anchor="start" x="227.01" y="-42.4" font-family="Times-12" font-weight="bold" font-size="14.00">Legend</text>
<polygon fill="#ffffb3" stroke="transparent" points="14,-10 14,-30 34,-30 34,-10 14,-10"/>
<text text-anchor="start" x="37.63" y="-15.4" font-family="Times-12" font-size="14.00"> &#160;Declarations</text>
<polygon fill="#8dd3c7" stroke="transparent" points="127,-10 127,-30 147,-30 147,-10 127,-10"/>
<text text-anchor="start" x="150.73" y="-15.4" font-family="Times-12" font-size="14.00"> &#160;Module</text>
<polygon fill="#80b1d3" stroke="transparent" points="213,-10 213,-30 233,-30 233,-10 213,-10"/>
<text text-anchor="start" x="236.78" y="-15.4" font-family="Times-12" font-size="14.00"> &#160;Bootstrap</text>
<polygon fill="#fdb462" stroke="transparent" points="310,-10 310,-30 330,-30 330,-10 310,-10"/>
<text text-anchor="start" x="333.67" y="-15.4" font-family="Times-12" font-size="14.00"> &#160;Providers</text>
<polygon fill="#fb8072" stroke="transparent" points="406,-10 406,-30 426,-30 426,-10 406,-10"/>
<text text-anchor="start" x="429.73" y="-15.4" font-family="Times-12" font-size="14.00"> &#160;Exports</text>
<g id="clust1" class="cluster">
<title>cluster_AppModule</title>
<polygon fill="none" stroke="black" stroke-dasharray="1,5" points="10.5,-70 10.5,-263 307.5,-263 307.5,-70 10.5,-70"/>
</g>
<g id="clust3" class="cluster">
<title>cluster_AppModule_imports</title>
<polygon fill="none" stroke="black" points="173.5,-146 173.5,-198 291.5,-198 291.5,-146 173.5,-146"/>
</g>
<g id="clust6" class="cluster">
<title>cluster_AppModule_providers</title>
<polygon fill="none" stroke="black" points="18.5,-78 18.5,-130 299.5,-130 299.5,-78 18.5,-78"/>
</g>
<g id="clust7" class="cluster">
<title>cluster_MoviesModule</title>
<polygon fill="none" stroke="black" stroke-dasharray="1,5" points="315.5,-70 315.5,-138 485.5,-138 485.5,-70 315.5,-70"/>
</g>
<g id="clust12" class="cluster">
<title>cluster_MoviesModule_providers</title>
<polygon fill="none" stroke="black" points="323.5,-78 323.5,-130 477.5,-130 477.5,-78 323.5,-78"/>
</g>
<!-- MoviesModule -->
<g id="node1" class="node">
<title>MoviesModule</title>
<polygon fill="#8dd3c7" stroke="black" points="283.05,-190 280.05,-194 259.05,-194 256.05,-190 181.95,-190 181.95,-154 283.05,-154 283.05,-190"/>
<text text-anchor="middle" x="232.5" y="-167.8" font-family="Times,serif" font-size="14.00">MoviesModule</text>
</g>
<!-- AppModule -->
<g id="node2" class="node">
<title>AppModule</title>
<polygon fill="#8dd3c7" stroke="black" points="204.16,-255 201.16,-259 180.16,-259 177.16,-255 120.84,-255 120.84,-219 204.16,-219 204.16,-255"/>
<text text-anchor="middle" x="162.5" y="-232.8" font-family="Times,serif" font-size="14.00">AppModule</text>
</g>
<!-- MoviesModule&#45;&gt;AppModule -->
<g id="edge1" class="edge">
<title>MoviesModule&#45;&gt;AppModule</title>
<path fill="none" stroke="black" d="M193.03,-190.11C193.03,-190.11 193.03,-208.99 193.03,-208.99"/>
<polygon fill="black" stroke="black" points="189.53,-208.99 193.03,-218.99 196.53,-208.99 189.53,-208.99"/>
</g>
<!-- AppService -->
<g id="node3" class="node">
<title>AppService</title>
<ellipse fill="#fdb462" stroke="black" cx="83.5" cy="-104" rx="56.74" ry="18"/>
<text text-anchor="middle" x="83.5" y="-99.8" font-family="Times,serif" font-size="14.00">AppService</text>
</g>
<!-- AppService&#45;&gt;AppModule -->
<g id="edge2" class="edge">
<title>AppService&#45;&gt;AppModule</title>
<path fill="none" stroke="black" d="M130.4,-114.44C130.4,-114.44 130.4,-208.72 130.4,-208.72"/>
<polygon fill="black" stroke="black" points="126.9,-208.72 130.4,-218.72 133.9,-208.72 126.9,-208.72"/>
</g>
<!-- PrismaService -->
<g id="node4" class="node">
<title>PrismaService</title>
<ellipse fill="#fdb462" stroke="black" cx="224.5" cy="-104" rx="66.63" ry="18"/>
<text text-anchor="middle" x="224.5" y="-99.8" font-family="Times,serif" font-size="14.00">PrismaService</text>
</g>
<!-- PrismaService&#45;&gt;MoviesModule -->
<g id="edge5" class="edge">
<title>PrismaService&#45;&gt;MoviesModule</title>
<path fill="none" stroke="black" d="M232.5,-122.22C232.5,-122.22 232.5,-143.73 232.5,-143.73"/>
<polygon fill="black" stroke="black" points="229,-143.73 232.5,-153.73 236,-143.73 229,-143.73"/>
</g>
<!-- PrismaService&#45;&gt;AppModule -->
<g id="edge3" class="edge">
<title>PrismaService&#45;&gt;AppModule</title>
<path fill="none" stroke="black" d="M169.71,-114.44C169.71,-114.44 169.71,-208.72 169.71,-208.72"/>
<polygon fill="black" stroke="black" points="166.21,-208.72 169.71,-218.72 173.21,-208.72 166.21,-208.72"/>
</g>
<!-- MoviesService -->
<g id="node5" class="node">
<title>MoviesService</title>
<ellipse fill="#fdb462" stroke="black" cx="400.5" cy="-104" rx="68.92" ry="18"/>
<text text-anchor="middle" x="400.5" y="-99.8" font-family="Times,serif" font-size="14.00">MoviesService</text>
</g>
<!-- MoviesService&#45;&gt;MoviesModule -->
<g id="edge4" class="edge">
<title>MoviesService&#45;&gt;MoviesModule</title>
<path fill="none" stroke="black" d="M400.5,-122.22C400.5,-142.37 400.5,-172 400.5,-172 400.5,-172 293.36,-172 293.36,-172"/>
<polygon fill="black" stroke="black" points="293.36,-168.5 283.36,-172 293.36,-175.5 293.36,-168.5"/>
</g>
</g>
</svg>
