<?xml version="1.0" encoding="UTF-8" standalone="no"?>
<!DOCTYPE svg PUBLIC "-//W3C//DTD SVG 1.1//EN"
 "http://www.w3.org/Graphics/SVG/1.1/DTD/svg11.dtd">
<!-- Generated by graphviz version 2.47.0 (20210316.0004)
 -->
<!-- Title: dependencies Pages: 1 -->
<svg width="504pt" height="287pt"
 viewBox="0.00 0.00 504.00 287.00" xmlns="http://www.w3.org/2000/svg" xmlns:xlink="http://www.w3.org/1999/xlink">
<g id="graph0" class="graph" transform="scale(1 1) rotate(0) translate(4 283)">
<title>dependencies</title>
<polygon fill="white" stroke="transparent" points="-4,4 -4,-283 500,-283 500,4 -4,4"/>
<text text-anchor="start" x="227.01" y="-42.4" font-family="Times-12" font-weight="bold" font-size="14.00">Legend</text>
<polygon fill="#ffffb3" stroke="transparent" points="14,-10 14,-30 34,-30 34,-10 14,-10"/>
<text text-anchor="start" x="37.63" y="-15.4" font-family="Times-12" font-size="14.00"> &#160;Declarations</text>
<polygon fill="#8dd3c7" stroke="transparent" points="127,-10 127,-30 147,-30 147,-10 127,-10"/>
<text text-anchor="start" x="150.73" y="-15.4" font-family="Times-12" font-size="14.00"> &#160;Module</text>
<polygon fill="#80b1d3" stroke="transparent" points="213,-10 213,-30 233,-30 233,-10 213,-10"/>
<text text-anchor="start" x="236.78" y="-15.4" font-family="Times-12" font-size="14.00"> &#160;Bootstrap</text>
<polygon fill="#fdb462" stroke="transparent" points="310,-10 310,-30 330,-30 330,-10 310,-10"/>
<text text-anchor="start" x="333.67" y="-15.4" font-family="Times-12" font-size="14.00"> &#160;Providers</text>
<polygon fill="#fb8072" stroke="transparent" points="406,-10 406,-30 426,-30 426,-10 406,-10"/>
<text text-anchor="start" x="429.73" y="-15.4" font-family="Times-12" font-size="14.00"> &#160;Exports</text>
<g id="clust1" class="cluster">
<title>cluster_AppModule</title>
<polygon fill="none" stroke="black" stroke-dasharray="1,5" points="103,-146 103,-271 375,-271 375,-146 103,-146"/>
</g>
<g id="clust3" class="cluster">
<title>cluster_AppModule_imports</title>
<polygon fill="none" stroke="black" points="249,-154 249,-206 367,-206 367,-154 249,-154"/>
</g>
<g id="clust6" class="cluster">
<title>cluster_AppModule_providers</title>
<polygon fill="none" stroke="black" points="111,-154 111,-206 241,-206 241,-154 111,-154"/>
</g>
<g id="clust7" class="cluster">
<title>cluster_MoviesModule</title>
<polygon fill="none" stroke="black" stroke-dasharray="1,5" points="223,-70 223,-138 393,-138 393,-70 223,-70"/>
</g>
<g id="clust12" class="cluster">
<title>cluster_MoviesModule_providers</title>
<polygon fill="none" stroke="black" points="231,-78 231,-130 385,-130 385,-78 231,-78"/>
</g>
<!-- MoviesModule -->
<g id="node1" class="node">
<title>MoviesModule</title>
<polygon fill="#8dd3c7" stroke="black" points="358.55,-198 355.55,-202 334.55,-202 331.55,-198 257.45,-198 257.45,-162 358.55,-162 358.55,-198"/>
<text text-anchor="middle" x="308" y="-175.8" font-family="Times,serif" font-size="14.00">MoviesModule</text>
</g>
<!-- AppModule -->
<g id="node2" class="node">
<title>AppModule</title>
<polygon fill="#8dd3c7" stroke="black" points="283.66,-263 280.66,-267 259.66,-267 256.66,-263 200.34,-263 200.34,-227 283.66,-227 283.66,-263"/>
<text text-anchor="middle" x="242" y="-240.8" font-family="Times,serif" font-size="14.00">AppModule</text>
</g>
<!-- MoviesModule&#45;&gt;AppModule -->
<g id="edge1" class="edge">
<title>MoviesModule&#45;&gt;AppModule</title>
<path fill="none" stroke="black" d="M270.53,-198.11C270.53,-198.11 270.53,-216.99 270.53,-216.99"/>
<polygon fill="black" stroke="black" points="267.03,-216.99 270.53,-226.99 274.03,-216.99 267.03,-216.99"/>
</g>
<!-- AppService -->
<g id="node3" class="node">
<title>AppService</title>
<ellipse fill="#fdb462" stroke="black" cx="176" cy="-180" rx="56.74" ry="18"/>
<text text-anchor="middle" x="176" y="-175.8" font-family="Times,serif" font-size="14.00">AppService</text>
</g>
<!-- AppService&#45;&gt;AppModule -->
<g id="edge2" class="edge">
<title>AppService&#45;&gt;AppModule</title>
<path fill="none" stroke="black" d="M216.4,-192.84C216.4,-192.84 216.4,-216.52 216.4,-216.52"/>
<polygon fill="black" stroke="black" points="212.9,-216.52 216.4,-226.52 219.9,-216.52 212.9,-216.52"/>
</g>
<!-- MoviesService -->
<g id="node4" class="node">
<title>MoviesService</title>
<ellipse fill="#fdb462" stroke="black" cx="308" cy="-104" rx="68.92" ry="18"/>
<text text-anchor="middle" x="308" y="-99.8" font-family="Times,serif" font-size="14.00">MoviesService</text>
</g>
<!-- MoviesService&#45;&gt;MoviesModule -->
<g id="edge3" class="edge">
<title>MoviesService&#45;&gt;MoviesModule</title>
<path fill="none" stroke="black" d="M308,-122.01C308,-122.01 308,-151.85 308,-151.85"/>
<polygon fill="black" stroke="black" points="304.5,-151.85 308,-161.85 311.5,-151.85 304.5,-151.85"/>
</g>
</g>
</svg>
